<?xml version="1.0" encoding="utf-8"?>
<!-- Generator: Adobe Illustrator 28.1.0, SVG Export Plug-In . SVG Version: 6.00 Build 0)  -->
<svg version="1.1" id="a" xmlns="http://www.w3.org/2000/svg" xmlns:xlink="http://www.w3.org/1999/xlink" x="0px" y="0px"
	 viewBox="0 0 128 128" style="enable-background:new 0 0 128 128;" xml:space="preserve">
<style type="text/css">
	.st0{fill:#5E81AC;}
</style>
<path class="st0" d="M68.3,11.5c-23.9,0-43.2,19.4-43.2,43.2v6.2c9,0,16.2,7.3,16.2,16.2v3.6c3.7,2.6,6,6.9,6,11.6
	c0,5.3-0.1,10.6-0.2,15.8c-0.1,3.8,3,8.3,7.3,8.3c1.8,0,3.6-0.8,4.8-2.2c2.2-2.5,5.5-4,9.1-4s6.8,1.5,9.1,4c1.2,1.3,3,2.2,4.8,2.2
	s3.6-0.8,4.8-2.2c2.2-2.5,5.5-4,9.1-4c4.1,0,7.7,2,9.9,5c0.5,0.7,1.4,1.2,2.3,1.2h0.5c1.5,0,2.8-1.2,2.8-2.8v-59
	C111.6,30.9,92.2,11.5,68.3,11.5L68.3,11.5L68.3,11.5z M60.3,60.9c0,3.4-2.8,6.2-6.2,6.2s-6.2-2.8-6.2-6.2V48.6
	c0-3.4,2.8-6.2,6.2-6.2s6.2,2.8,6.2,6.2C60.3,48.6,60.3,60.9,60.3,60.9z M88.7,60.9c0,3.4-2.8,6.2-6.2,6.2s-6.2-2.8-6.2-6.2V48.6
	c0-3.4,2.8-6.2,6.2-6.2s6.2,2.8,6.2,6.2C88.7,48.6,88.7,60.9,88.7,60.9z"/>
<path class="st0" d="M35.2,84.6v-7.4c0-5.6-4.5-10.1-10-10.1s-10.1,4.5-10.1,10.1v7.4c-3.5,0.9-6,4-6,7.8v16.1c0,4.4,3.6,8,8,8h16.1
	c4.4,0,8-3.6,8-8V92.4C41.2,88.6,38.6,85.5,35.2,84.6L35.2,84.6L35.2,84.6z M28.9,106.7c0,0.6-0.4,1.1-1,1.1h-5.6
	c-0.3,0-0.5-0.1-0.7-0.3c-0.3-0.3-0.3-0.7-0.3-0.8c0-2,1.9-4.1,1.9-6.1c0-0.2-0.1-0.4-0.1-0.6c-1.1-0.7-1.8-1.8-1.8-3.2
	c0-2.1,1.7-3.8,3.8-3.8s3.8,1.7,3.8,3.8c0,1.3-0.7,2.5-1.8,3.2c-0.1,0.2-0.1,0.4-0.1,0.6C27,102.6,28.9,104.7,28.9,106.7L28.9,106.7
	L28.9,106.7z M31.1,84.3H19.1v-7.2c0-3.3,2.7-6,6-6s6,2.7,6,6L31.1,84.3C31.1,84.3,31.1,84.3,31.1,84.3z"/>
</svg>
