<svg aria-hidden="true" style="position: absolute; width: 0; height: 0; overflow: hidden;" version="1.1" xmlns="http://www.w3.org/2000/svg" xmlns:xlink="http://www.w3.org/1999/xlink">
  <defs>
    <symbol id="icon-menu" viewBox="0 0 24 24">
      <path stroke-linecap="round" stroke-linejoin="round" stroke-width="2" d="M4 6h16M4 12h16M4 18h7" />
    </symbol>
    <symbol id="icon-download" viewBox="0 0 256 256">
      <path d="M224,144v64a8,8,0,0,1-8,8H40a8,8,0,0,1-8-8V144a8,8,0,0,1,16,0v56H208V144a8,8,0,0,1,16,0Zm-101.66,5.66a8,8,0,0,0,11.32,0l40-40a8,8,0,0,0-11.32-11.32L136,124.69V32a8,8,0,0,0-16,0v92.69L93.66,98.34a8,8,0,0,0-11.32,11.32Z"></path>
    </symbol>
    <symbol id="icon-paste" viewBox="0 0 256 256">
      <path d="M213.66,82.34l-56-56A8,8,0,0,0,152,24H56A16,16,0,0,0,40,40V216a16,16,0,0,0,16,16H200a16,16,0,0,0,16-16V88A8,8,0,0,0,213.66,82.34ZM160,51.31,188.69,80H160ZM200,216H56V40h88V88a8,8,0,0,0,8,8h48V216Z"></path>
    </symbol>
    <symbol id="icon-clear" viewBox="0 0 256 256">
      <path d="M216,48H40a8,8,0,0,0,0,16h8V208a16,16,0,0,0,16,16H192a16,16,0,0,0,16-16V64h8a8,8,0,0,0,0-16ZM192,208H64V64H192ZM80,24a8,8,0,0,1,8-8h80a8,8,0,0,1,0,16H88A8,8,0,0,1,80,24Z"></path>
    </symbol>
    <symbol id="icon-copy" viewBox="0 0 256 256">
      <path d="M216,32H88a8,8,0,0,0-8,8V80H40a8,8,0,0,0-8,8V216a8,8,0,0,0,8,8H168a8,8,0,0,0,8-8V176h40a8,8,0,0,0,8-8V40A8,8,0,0,0,216,32ZM160,208H48V96H160Zm48-48H176V88a8,8,0,0,0-8-8H96V48H208Z"></path>
    </symbol>
    <symbol id="icon-share" viewBox="0 0 256 256">
      <path d="M237.66,106.35l-80-80A8,8,0,0,0,144,32V72.35c-25.94,2.22-54.59,14.92-78.16,34.91-28.38,24.08-46.05,55.11-49.76,87.37a12,12,0,0,0,20.68,9.58h0c11-11.71,50.14-48.74,107.24-52V192a8,8,0,0,0,13.66,5.65l80-80A8,8,0,0,0,237.66,106.35ZM160,172.69V144a8,8,0,0,0-8-8c-28.08,0-55.43,7.33-81.29,21.8a196.17,196.17,0,0,0-36.57,26.52c5.8-23.84,20.42-46.51,42.05-64.86C99.41,99.77,127.75,88,152,88a8,8,0,0,0,8-8V51.32L220.69,112Z"></path>
    </symbol>
    <symbol id="icon-generate" viewBox="0 0 256 256">
      <path d="M224,48V96a8,8,0,0,1-8,8H168a8,8,0,0,1,0-16h28.69L182.06,73.37a79.56,79.56,0,0,0-56.13-23.43h-.45A79.52,79.52,0,0,0,69.59,72.71,8,8,0,0,1,58.41,61.27a96,96,0,0,1,135,.79L208,76.69V48a8,8,0,0,1,16,0ZM186.41,183.29a80,80,0,0,1-112.47-.66L59.31,168H88a8,8,0,0,0,0-16H40a8,8,0,0,0-8,8v48a8,8,0,0,0,16,0V179.31l14.63,14.63A95.43,95.43,0,0,0,130,222.06h.53a95.36,95.36,0,0,0,67.07-27.33,8,8,0,0,0-11.18-11.44Z"></path>
    </symbol>
    <symbol id="icon-warning" viewBox="0 0 256 256">
      <path d="M236.8,188.09,149.35,36.22h0a24.76,24.76,0,0,0-42.7,0L19.2,188.09a23.51,23.51,0,0,0,0,23.72A24.35,24.35,0,0,0,40.55,224h174.9a24.35,24.35,0,0,0,21.33-12.19A23.51,23.51,0,0,0,236.8,188.09ZM222.93,203.8a8.5,8.5,0,0,1-7.48,4.2H40.55a8.5,8.5,0,0,1-7.48-4.2,7.59,7.59,0,0,1,0-7.72L120.52,44.21a8.75,8.75,0,0,1,15,0l87.45,151.87A7.59,7.59,0,0,1,222.93,203.8ZM120,144V104a8,8,0,0,1,16,0v40a8,8,0,0,1-16,0Zm20,36a12,12,0,1,1-12-12A12,12,0,0,1,140,180Z"></path>
    </symbol>
    <symbol id="icon-info" viewBox="0 0 256 256">
      <path d="M144,200a16,16,0,1,1-16-16A16,16,0,0,1,144,200Zm-16-40a8,8,0,0,0,8-8V48a8,8,0,0,0-16,0V152A8,8,0,0,0,128,160Z"></path>
    </symbol>
    <symbol id="icon-ghost" viewBox="0 0 256 256">
      <path d="M128,24a96.11,96.11,0,0,0-96,96v96a8,8,0,0,0,13.07,6.19l24.26-19.85L93.6,222.19a8,8,0,0,0,10.13,0L128,202.34l24.27,19.85a8,8,0,0,0,10.13,0l24.27-19.85,24.26,19.85A8,8,0,0,0,224,216V120A96.11,96.11,0,0,0,128,24ZM100,128a12,12,0,1,1,12-12A12,12,0,0,1,100,128Zm56,0a12,12,0,1,1,12-12A12,12,0,0,1,156,128Z"></path>
    </symbol>
  </defs>
</svg>
