<?xml version="1.0" encoding="UTF-8"?><svg id="a" fill="currentColor" xmlns="http://www.w3.org/2000/svg" viewBox="0 0 256 256"><path d="M128,43c-38.66,0-70,31.34-70,70,0,0,0,10,0,10,14.49,0,26.28,11.79,26.28,26.28v5.84c5.99,4.22,9.77,11.16,9.77,18.82,0,8.55-.15,17.1-.31,25.65-.12,6.24,4.86,13.42,11.77,13.42,2.97,0,5.76-1.31,7.77-3.51,3.65-3.99,8.89-6.49,14.73-6.49s11.08,2.5,14.73,6.49c2.01,2.19,4.8,3.51,7.77,3.51s5.76-1.31,7.77-3.51c3.65-3.99,8.89-6.49,14.73-6.49,6.58,0,12.4,3.18,16.04,8.08.87,1.18,2.21,1.92,3.68,1.92h.79c2.48,0,4.49-2.01,4.49-4.49v-95.51c0-38.66-31.34-70-70-70ZM115,123c0,5.52-4.48,10-10,10s-10-4.48-10-10v-20c0-5.52,4.48-10,10-10s10,4.48,10,10v20ZM161,123c0,5.52-4.48,10-10,10s-10-4.48-10-10v-20c0-5.52,4.48-10,10-10s10,4.48,10,10v20Z" style="stroke-width:0px;"/><path d="M74.28,161.34v-12.06c0-8.98-7.3-16.28-16.28-16.28s-16.28,7.3-16.28,16.28v12.06c-5.61,1.45-9.77,6.53-9.77,12.6v26.05c0,7.19,5.83,13.02,13.02,13.02h26.05c7.19,0,13.02-5.83,13.02-13.02v-26.05c0-6.07-4.15-11.15-9.77-12.6ZM64.13,197.12c0,1.01-.71,1.83-1.57,1.83h-9.12c-.43,0-.83-.21-1.11-.54-.45-.53-.46-1.17-.46-1.3,0-3.28,3.07-6.57,3.07-9.85,0-.34-.09-.67-.22-1.01-1.71-1.09-2.84-3-2.84-5.17,0-3.39,2.75-6.13,6.13-6.13s6.13,2.75,6.13,6.13c0,2.18-1.14,4.08-2.84,5.17-.14.34-.22.67-.22,1.01,0,3.28,3.07,6.57,3.07,9.85ZM67.77,160.91h-19.53v-11.63c0-5.39,4.38-9.77,9.77-9.77s9.77,4.38,9.77,9.77v11.63Z" style="stroke-width:0px;"/></svg>